# xmcd CD database file
#
# Track frame offsets:
#	150
#	15740
#	35682
#	53668
#	69217
#	85762
#	101616
#	117036
#	137559
#	152888
#	167714
#	190974
#	208318
#	225795
#	245372
#	262663
#	277094
#	295785
#	314766
#	332613
#
# Disc length: 4647 seconds
#
# Revision: 5
# Processed by: cddbd v1.5.1PL2 Copyright (c) Steve Scherf et al.
# Submitted via: CDex 1.51
#
DISCID=13122514
DTITLE=Various Artist - Promo Radio December 2005
DYEAR=2005
DGENRE=New Age
TTITLE0=Pussycat Dolls - Stickwitu (Album Version)
TTITLE1=Gwen Stefani - Luxurious (Album Version)
TTITLE2=Switchfoot - Stars
TTITLE3=The Veronicas - 4ever
TTITLE4=Lindsay Lohan - Confessions Of A Broken Heart (Daughter To Father) (Radio Edit)
TTITLE5=James Blunt - You're Beautiful
TTITLE6=Kanye West feat. Adam Levine - Heard 'Em Say (Radio Edit)
TTITLE7=Massari - Real Love
TTITLE8=Hedley - On My Own
TTITLE9=Shawn Desman - Man In Me
TTITLE10=Coldplay - Talk
TTITLE11=David Banner - Play (Album Version - Edited)
TTITLE12=Natasha Bedingfield - Unwritten
TTITLE13=Trick Trick Featuring Eminem - Welcome 2 Detroit (Radio Edit)
TTITLE14=Alanis Morissette - Crazy Glen Ballard Mix
TTITLE15=DHT - Someone (Radio Edit)
TTITLE16=Styles P Feat. Akon - Can You Believe It (Radio Version)
TTITLE17=Motley Crue feat. Chester Bennington of Linkin Park - Home Sweet Home--Radio Edit
TTITLE18=Pharrell and Gwen Stefani - Can I Have It Like That (Album Version (Edited))
TTITLE19=Jack Johnson - Breakdown
EXTD=YEAR: 2005
EXTT0=
EXTT1=
EXTT2=
EXTT3=
EXTT4=
EXTT5=
EXTT6=
EXTT7=
EXTT8=
EXTT9=
EXTT10=
EXTT11=
EXTT12=
EXTT13=
EXTT14=
EXTT15=
EXTT16=
EXTT17=
EXTT18=
EXTT19=
PLAYORDER=
